<svg xmlns="http://www.w3.org/2000/svg" xmlns:xlink="http://www.w3.org/1999/xlink" contentStyleType="text/css" data-diagram-type="ACTIVITY" height="1445px" preserveAspectRatio="none" style="width:1876px;height:1445px;background:#FEFEFE;" version="1.1" viewBox="0 0 1876 1445" width="1876px" zoomAndPan="magnify"><?plantuml 1.2026.3beta6?><defs/><g><rect fill="#FEFEFE" height="1445" style="stroke:none;stroke-width:1;" width="1876" x="0" y="0"/><g class="title" data-source-line="8"><text fill="#000000" font-family="Verdana" font-size="22" font-weight="700" lengthAdjust="spacing" textLength="415.4768" x="729.424" y="35.4209">A&#32929;&#20132;&#26131;&#31995;&#32479; - &#27599;&#26085;&#25191;&#34892;&#27969;&#31243;&#65288;&#19978;&#29677;&#26063;&#29256;&#65289;</text></g><rect fill="#FFFFFF" height="20.9531" style="stroke:#FFFFFF;stroke-width:1;" width="1839.3249" x="15" y="59.3545"/><ellipse cx="140.6326" cy="95.3076" fill="#FFFFFF" rx="10" ry="10" style="stroke:#000000;stroke-width:1;"/><path d="M248.8878,129.7256 L248.8878,138.292 L228.8878,142.292 L248.8878,146.292 L248.8878,154.8584 A0,0 0 0 0 248.8878,154.8584 L393.5466,154.8584 A0,0 0 0 0 393.5466,154.8584 L393.5466,139.7256 L383.5466,129.7256 L248.8878,129.7256 A0,0 0 0 0 248.8878,129.7256" fill="#FFFFFF" style="stroke:#000000;stroke-width:1;"/><path d="M383.5466,129.7256 L383.5466,139.7256 L393.5466,139.7256 L383.5466,129.7256" fill="#FFFFFF" style="stroke:#000000;stroke-width:1;"/><text fill="#000000" font-family="Verdana" font-size="13" lengthAdjust="spacing" textLength="123.6588" x="254.8878" y="146.7925">&#23545; Kiro &#35828;"&#25910;&#30424;&#35760;&#24405;"</text><rect fill="#E8F5E9" height="33.9688" rx="12.5" ry="12.5" style="stroke:#4CAF50;stroke-width:1;" width="176.5103" x="52.3775" y="125.3076"/><text fill="#000000" font-family="Verdana" font-size="12" lengthAdjust="spacing" textLength="156.5103" x="62.3775" y="146.4463">&#128202; &#25910;&#30424;&#27969;&#31243;&#65288;15:00-15:30&#65289;</text><rect fill="#E8F5E9" height="33.9688" rx="12.5" ry="12.5" style="stroke:#4CAF50;stroke-width:1;" width="131.2644" x="75.0004" y="179.2764"/><text fill="#000000" font-family="Verdana" font-size="12" lengthAdjust="spacing" textLength="111.2644" x="85.0004" y="200.415">1. &#33719;&#21462;&#22823;&#30424;&#25910;&#30424;&#25968;&#25454;</text><rect fill="#E8F5E9" height="33.9688" rx="12.5" ry="12.5" style="stroke:#4CAF50;stroke-width:1;" width="131.2644" x="75.0004" y="233.2451"/><text fill="#000000" font-family="Verdana" font-size="12" lengthAdjust="spacing" textLength="111.2644" x="85.0004" y="254.3838">2. &#26356;&#26032;&#25345;&#20179;&#26368;&#26032;&#20215;&#26684;</text><rect fill="#E8F5E9" height="33.9688" rx="12.5" ry="12.5" style="stroke:#4CAF50;stroke-width:1;" width="123.3073" x="78.979" y="287.2139"/><text fill="#000000" font-family="Verdana" font-size="12" lengthAdjust="spacing" textLength="103.3073" x="88.979" y="308.3525">3. &#37325;&#31639;&#27490;&#25439;/&#27490;&#30408;&#20215;</text><rect fill="#E8F5E9" height="33.9688" rx="12.5" ry="12.5" style="stroke:#4CAF50;stroke-width:1;" width="210.3604" x="35.4524" y="341.1826"/><text fill="#000000" font-family="Verdana" font-size="12" lengthAdjust="spacing" textLength="190.3604" x="45.4524" y="362.3213">4. &#26816;&#26597;&#26102;&#38388;&#27490;&#25439;&#65288;5&#26085;&#25391;&#24133;&lt;3%?&#65289;</text><rect fill="#E8F5E9" height="33.9688" rx="12.5" ry="12.5" style="stroke:#4CAF50;stroke-width:1;" width="212.9035" x="34.1808" y="395.1514"/><text fill="#000000" font-family="Verdana" font-size="12" lengthAdjust="spacing" textLength="192.9035" x="44.1808" y="416.29">5. &#26816;&#26597;&#26680;&#24515;&#27744;&#24322;&#24120;&#65288;&#36300;&#30772;20&#26085;&#32447;?&#65289;</text><rect fill="#E8F5E9" height="33.9688" rx="12.5" ry="12.5" style="stroke:#4CAF50;stroke-width:1;" width="239.2652" x="21" y="449.1201"/><text fill="#000000" font-family="Verdana" font-size="12" lengthAdjust="spacing" textLength="219.2652" x="31" y="470.2588">6. &#25163;&#21160;&#22635;&#20889;&#65306;&#24635;&#36164;&#20135;&#12289;&#20170;&#26085;&#20132;&#26131;&#12289;&#19968;&#21477;&#35805;</text><path d="M226.2648,493.0889 L226.2648,547.0537 L206.2648,551.0537 L226.2648,555.0537 L226.2648,609.0186 A0,0 0 0 0 226.2648,609.0186 L415.9095,609.0186 A0,0 0 0 0 415.9095,609.0186 L415.9095,503.0889 L405.9095,493.0889 L226.2648,493.0889 A0,0 0 0 0 226.2648,493.0889" fill="#FFFFFF" style="stroke:#000000;stroke-width:1;"/><path d="M405.9095,493.0889 L405.9095,503.0889 L415.9095,503.0889 L405.9095,493.0889" fill="#FFFFFF" style="stroke:#000000;stroke-width:1;"/><text fill="#000000" font-family="Verdana" font-size="13" lengthAdjust="spacing" textLength="91.0001" x="232.2648" y="510.1558">&#26126;&#26085;&#35745;&#21010;&#21253;&#21547;&#65306;</text><text fill="#000000" font-family="Verdana" font-size="13" lengthAdjust="spacing" textLength="97.1573" x="232.2648" y="525.2886">&#183; &#22823;&#30424;&#29366;&#24577;+&#21028;&#23450;</text><text fill="#000000" font-family="Verdana" font-size="13" lengthAdjust="spacing" textLength="60.2647" x="232.2648" y="540.4214">&#183; &#39118;&#25511;&#29366;&#24577;</text><text fill="#000000" font-family="Verdana" font-size="13" lengthAdjust="spacing" textLength="168.6447" x="232.2648" y="555.5542">&#183; &#26465;&#20214;&#21333;&#28165;&#21333;&#65288;&#27490;&#25439;/&#27490;&#30408;&#20215;&#65289;</text><text fill="#000000" font-family="Verdana" font-size="13" lengthAdjust="spacing" textLength="125.2648" x="232.2648" y="570.687">&#183; &#26680;&#24515;&#27744;&#20080;&#20837;&#26465;&#20214;&#26816;&#26597;</text><text fill="#000000" font-family="Verdana" font-size="13" lengthAdjust="spacing" textLength="86.2647" x="232.2648" y="585.8198">&#183; &#25345;&#20179;&#20851;&#27880;&#20107;&#39033;</text><text fill="#000000" font-family="Verdana" font-size="13" lengthAdjust="spacing" textLength="86.2647" x="232.2648" y="600.9526">&#183; &#26126;&#26085;&#37325;&#28857;&#34892;&#21160;</text><rect fill="#E8F5E9" height="47.9375" rx="12.5" ry="12.5" style="stroke:#4CAF50;stroke-width:1;" width="131.2644" x="75.0004" y="527.085"/><text fill="#000000" font-family="Verdana" font-size="12" lengthAdjust="spacing" textLength="11.4492" x="85.0004" y="548.2236">7.</text><text fill="#000000" font-family="Verdana" font-size="12" font-weight="700" lengthAdjust="spacing" textLength="96.0007" x="100.2641" y="548.2236">&#33258;&#21160;&#29983;&#25104;&#26126;&#26085;&#35745;&#21010;</text><text fill="#000000" font-family="Verdana" font-size="12" lengthAdjust="spacing" textLength="108.0008" x="85.0004" y="562.1924">&#20889;&#20837;&#26126;&#22825;&#30340;&#26085;&#24535;&#25991;&#20214;</text><line style="stroke:#000000;stroke-width:1;" x1="15" x2="15" y1="59.3545" y2="1429.792"/><path d="M625.9492,625.8701 L625.9492,642.0029 L605.9492,646.0029 L625.9492,650.0029 L625.9492,666.1357 A0,0 0 0 0 625.9492,666.1357 L790.1524,666.1357 A0,0 0 0 0 790.1524,666.1357 L790.1524,635.8701 L780.1524,625.8701 L625.9492,625.8701 A0,0 0 0 0 625.9492,625.8701" fill="#FFFFFF" style="stroke:#000000;stroke-width:1;"/><path d="M780.1524,625.8701 L780.1524,635.8701 L790.1524,635.8701 L780.1524,625.8701" fill="#FFFFFF" style="stroke:#000000;stroke-width:1;"/><text fill="#000000" font-family="Verdana" font-size="13" lengthAdjust="spacing" textLength="143.2032" x="631.9492" y="642.937">&#25171;&#24320; Obsidian &#20170;&#26085;&#26085;&#24535;</text><text fill="#000000" font-family="Verdana" font-size="13" lengthAdjust="spacing" textLength="104.0001" x="631.9492" y="658.0698">&#24213;&#37096;&#24050;&#26377;&#26126;&#26085;&#35745;&#21010;</text><rect fill="#E8F5E9" height="33.9688" rx="12.5" ry="12.5" style="stroke:#4CAF50;stroke-width:1;" width="161.2408" x="444.7084" y="629.0186"/><text fill="#000000" font-family="Verdana" font-size="12" lengthAdjust="spacing" textLength="141.2408" x="454.7084" y="650.1572">&#128203; &#30424;&#21069;&#30830;&#35748;&#65288;8:30-9:15&#65289;</text><rect fill="#E8F5E9" height="33.9688" rx="12.5" ry="12.5" style="stroke:#4CAF50;stroke-width:1;" width="174.208" x="438.2248" y="686.1357"/><text fill="#000000" font-family="Verdana" font-size="12" lengthAdjust="spacing" textLength="154.208" x="448.2248" y="707.2744">&#9744; &#30475;&#38548;&#22812;&#26032;&#38395;&#26631;&#39064;&#65288;5&#20998;&#38047;&#65289;</text><rect fill="#E8F5E9" height="33.9688" rx="12.5" ry="12.5" style="stroke:#4CAF50;stroke-width:1;" width="118.5729" x="466.0424" y="740.1045"/><text fill="#000000" font-family="Verdana" font-size="12" lengthAdjust="spacing" textLength="98.5729" x="476.0424" y="761.2432">&#9744; &#26391;&#35835;&#24515;&#29702;&#26816;&#26597;&#34920;</text><rect fill="#E8F5E9" height="33.9688" rx="12.5" ry="12.5" style="stroke:#4CAF50;stroke-width:1;" width="142.5731" x="454.0423" y="794.0732"/><text fill="#000000" font-family="Verdana" font-size="12" lengthAdjust="spacing" textLength="122.5731" x="464.0423" y="815.2119">&#9744; &#29031;&#30528;&#26465;&#20214;&#21333;&#28165;&#21333;&#25346;&#21333;</text><rect fill="#E8F5E9" height="33.9688" rx="12.5" ry="12.5" style="stroke:#4CAF50;stroke-width:1;" width="142.5731" x="454.0423" y="848.042"/><text fill="#000000" font-family="Verdana" font-size="12" lengthAdjust="spacing" textLength="122.5731" x="464.0423" y="869.1807">&#9744; &#30830;&#35748;&#26465;&#20214;&#21333;&#20215;&#26684;&#27491;&#30830;</text><polygon fill="#FFF9C4" points="494.9098,902.0107,555.7478,902.0107,567.7478,914.0107,555.7478,926.0107,494.9098,926.0107,482.9098,914.0107,494.9098,902.0107" style="stroke:#FFC107;stroke-width:1;"/><text fill="#000000" font-family="Verdana" font-size="11" lengthAdjust="spacing" textLength="60.838" x="494.9098" y="917.8188">&#26377;&#24322;&#24120;&#24773;&#20917;?</text><text fill="#000000" font-family="Verdana" font-size="11" lengthAdjust="spacing" textLength="10.9999" x="471.9099" y="911.4165">&#26159;</text><text fill="#000000" font-family="Verdana" font-size="11" lengthAdjust="spacing" textLength="10.9999" x="567.7478" y="911.4165">&#21542;</text><rect fill="#E8F5E9" height="33.9688" rx="12.5" ry="12.5" style="stroke:#4CAF50;stroke-width:1;" width="92.0005" x="426.9095" y="936.0107"/><text fill="#000000" font-family="Verdana" font-size="12" lengthAdjust="spacing" textLength="72.0005" x="436.9095" y="957.1494">&#35760;&#24405;&#30424;&#21069;&#22791;&#27880;</text><rect fill="#E8F5E9" height="33.9688" rx="12.5" ry="12.5" style="stroke:#4CAF50;stroke-width:1;" width="68.0004" x="543.7476" y="936.0107"/><text fill="#000000" font-family="Verdana" font-size="12" lengthAdjust="spacing" textLength="48.0004" x="553.7476" y="957.1494">&#27491;&#24120;&#19978;&#29677;</text><polygon fill="#FFF9C4" points="525.3288,975.9795,537.3288,987.9795,525.3288,999.9795,513.3288,987.9795,525.3288,975.9795" style="stroke:#FFC107;stroke-width:1;"/><line style="stroke:#000000;stroke-width:1;" x1="420.9095" x2="420.9095" y1="59.3545" y2="1429.792"/><path d="M966.0278,1024.3975 L966.0278,1032.9639 L946.0278,1036.9639 L966.0278,1040.9639 L966.0278,1049.5303 A0,0 0 0 0 966.0278,1049.5303 L1130.0279,1049.5303 A0,0 0 0 0 1130.0279,1049.5303 L1130.0279,1034.3975 L1120.0279,1024.3975 L966.0278,1024.3975 A0,0 0 0 0 966.0278,1024.3975" fill="#FFFFFF" style="stroke:#000000;stroke-width:1;"/><path d="M1120.0279,1024.3975 L1120.0279,1034.3975 L1130.0279,1034.3975 L1120.0279,1024.3975" fill="#FFFFFF" style="stroke:#000000;stroke-width:1;"/><text fill="#000000" font-family="Verdana" font-size="13" lengthAdjust="spacing" textLength="143.0002" x="972.0278" y="1041.4644">&#19981;&#30475;&#30424;&#65292;&#26465;&#20214;&#21333;&#33258;&#21160;&#25191;&#34892;</text><rect fill="#E8F5E9" height="33.9688" rx="12.5" ry="12.5" style="stroke:#4CAF50;stroke-width:1;" width="144.8754" x="801.1524" y="1019.9795"/><text fill="#000000" font-family="Verdana" font-size="12" lengthAdjust="spacing" textLength="124.8754" x="811.1524" y="1041.1182">&#127970; &#19978;&#29677;&#65288;9:30-12:00&#65289;</text><line style="stroke:#000000;stroke-width:1;" x1="795.1524" x2="795.1524" y1="59.3545" y2="1429.792"/><rect fill="#E8F5E9" height="33.9688" rx="12.5" ry="12.5" style="stroke:#4CAF50;stroke-width:1;" width="176.5103" x="1223.1886" y="1073.9482"/><text fill="#000000" font-family="Verdana" font-size="12" lengthAdjust="spacing" textLength="156.5103" x="1233.1886" y="1095.0869">&#127857; &#21320;&#20241;&#26816;&#26597;&#65288;12:00-12:30&#65289;</text><rect fill="#E8F5E9" height="33.9688" rx="12.5" ry="12.5" style="stroke:#4CAF50;stroke-width:1;" width="142.5731" x="1240.1572" y="1127.917"/><text fill="#000000" font-family="Verdana" font-size="12" lengthAdjust="spacing" textLength="122.5731" x="1250.1572" y="1149.0557">&#9744; &#26597;&#30475;&#26465;&#20214;&#21333;&#25104;&#20132;&#24773;&#20917;</text><polygon fill="#FFF9C4" points="1239.0285,1181.8857,1383.8591,1181.8857,1395.8591,1193.8857,1383.8591,1205.8857,1239.0285,1205.8857,1227.0285,1193.8857,1239.0285,1181.8857" style="stroke:#FFC107;stroke-width:1;"/><text fill="#000000" font-family="Verdana" font-size="11" lengthAdjust="spacing" textLength="144.8306" x="1239.0285" y="1197.6938">&#26377;&#21152;&#20179;&#26426;&#20250; &#19988; &#26412;&#21608;&#36824;&#26377;&#27425;&#25968;?</text><text fill="#000000" font-family="Verdana" font-size="11" lengthAdjust="spacing" textLength="10.9999" x="1216.0285" y="1191.2915">&#26159;</text><text fill="#000000" font-family="Verdana" font-size="11" lengthAdjust="spacing" textLength="10.9999" x="1395.8591" y="1191.2915">&#21542;</text><rect fill="#E8F5E9" height="33.9688" rx="12.5" ry="12.5" style="stroke:#4CAF50;stroke-width:1;" width="152.001" x="1141.0279" y="1215.8857"/><text fill="#000000" font-family="Verdana" font-size="12" lengthAdjust="spacing" textLength="132.001" x="1151.0279" y="1237.0244">&#25346;&#38480;&#20215;&#21152;&#20179;&#21333;&#65288;&#19981;&#36861;&#39640;&#65289;</text><rect fill="#E8F5E9" height="33.9688" rx="12.5" ry="12.5" style="stroke:#4CAF50;stroke-width:1;" width="56.0003" x="1377.8589" y="1215.8857"/><text fill="#000000" font-family="Verdana" font-size="12" lengthAdjust="spacing" textLength="36.0003" x="1387.8589" y="1237.0244">&#19981;&#25805;&#20316;</text><polygon fill="#FFF9C4" points="1311.4438,1255.8545,1323.4438,1267.8545,1311.4438,1279.8545,1299.4438,1267.8545,1311.4438,1255.8545" style="stroke:#FFC107;stroke-width:1;"/><line style="stroke:#000000;stroke-width:1;" x1="1135.0279" x2="1135.0279" y1="59.3545" y2="1429.792"/><path d="M1640.3695,1304.2725 L1640.3695,1312.8389 L1620.3695,1316.8389 L1640.3695,1320.8389 L1640.3695,1329.4053 A0,0 0 0 0 1640.3695,1329.4053 L1700.3696,1329.4053 A0,0 0 0 0 1700.3696,1329.4053 L1700.3696,1314.2725 L1690.3696,1304.2725 L1640.3695,1304.2725 A0,0 0 0 0 1640.3695,1304.2725" fill="#FFFFFF" style="stroke:#000000;stroke-width:1;"/><path d="M1690.3696,1304.2725 L1690.3696,1314.2725 L1700.3696,1314.2725 L1690.3696,1304.2725" fill="#FFFFFF" style="stroke:#000000;stroke-width:1;"/><text fill="#000000" font-family="Verdana" font-size="13" lengthAdjust="spacing" textLength="39" x="1646.3695" y="1321.3394">&#19981;&#30475;&#30424;</text><rect fill="#E8F5E9" height="33.9688" rx="12.5" ry="12.5" style="stroke:#4CAF50;stroke-width:1;" width="176.5103" x="1443.8592" y="1299.8545"/><text fill="#000000" font-family="Verdana" font-size="12" lengthAdjust="spacing" textLength="156.5103" x="1453.8592" y="1320.9932">&#127970; &#32487;&#32493;&#19978;&#29677;&#65288;13:00-15:00&#65289;</text><line style="stroke:#000000;stroke-width:1;" x1="1437.8592" x2="1437.8592" y1="59.3545" y2="1429.792"/><rect fill="#E8F5E9" height="33.9688" rx="12.5" ry="12.5" style="stroke:#4CAF50;stroke-width:1;" width="137.0945" x="1711.3696" y="1353.8232"/><text fill="#000000" font-family="Verdana" font-size="12" lengthAdjust="spacing" textLength="117.0945" x="1721.3696" y="1374.9619">&#22238;&#21040;"&#25910;&#30424;&#27969;&#31243;"&#8594;&#24490;&#29615;</text><ellipse cx="1779.9168" cy="1418.792" fill="none" rx="11" ry="11" style="stroke:#000000;stroke-width:1;"/><ellipse cx="1779.9168" cy="1418.792" fill="#FFFFFF" rx="6" ry="6" style="stroke:#000000;stroke-width:1;"/><line style="stroke:#000000;stroke-width:1;" x1="1705.3696" x2="1705.3696" y1="59.3545" y2="1429.792"/><line style="stroke:#000000;stroke-width:1;" x1="1852.4641" x2="1852.4641" y1="59.3545" y2="1429.792"/><line style="stroke:#000000;stroke-width:1;" x1="140.6326" x2="140.6326" y1="105.3076" y2="125.3076"/><polygon fill="#000000" points="136.6326,115.3076,140.6326,125.3076,144.6326,115.3076,140.6326,119.3076" style="stroke:#000000;stroke-width:1;"/><line style="stroke:#000000;stroke-width:1;" x1="140.6326" x2="140.6326" y1="159.2764" y2="179.2764"/><polygon fill="#000000" points="136.6326,169.2764,140.6326,179.2764,144.6326,169.2764,140.6326,173.2764" style="stroke:#000000;stroke-width:1;"/><line style="stroke:#000000;stroke-width:1;" x1="140.6326" x2="140.6326" y1="213.2451" y2="233.2451"/><polygon fill="#000000" points="136.6326,223.2451,140.6326,233.2451,144.6326,223.2451,140.6326,227.2451" style="stroke:#000000;stroke-width:1;"/><line style="stroke:#000000;stroke-width:1;" x1="140.6326" x2="140.6326" y1="267.2139" y2="287.2139"/><polygon fill="#000000" points="136.6326,277.2139,140.6326,287.2139,144.6326,277.2139,140.6326,281.2139" style="stroke:#000000;stroke-width:1;"/><line style="stroke:#000000;stroke-width:1;" x1="140.6326" x2="140.6326" y1="321.1826" y2="341.1826"/><polygon fill="#000000" points="136.6326,331.1826,140.6326,341.1826,144.6326,331.1826,140.6326,335.1826" style="stroke:#000000;stroke-width:1;"/><line style="stroke:#000000;stroke-width:1;" x1="140.6326" x2="140.6326" y1="375.1514" y2="395.1514"/><polygon fill="#000000" points="136.6326,385.1514,140.6326,395.1514,144.6326,385.1514,140.6326,389.1514" style="stroke:#000000;stroke-width:1;"/><line style="stroke:#000000;stroke-width:1;" x1="140.6326" x2="140.6326" y1="429.1201" y2="449.1201"/><polygon fill="#000000" points="136.6326,439.1201,140.6326,449.1201,144.6326,439.1201,140.6326,443.1201" style="stroke:#000000;stroke-width:1;"/><line style="stroke:#000000;stroke-width:1;" x1="140.6326" x2="140.6326" y1="483.0889" y2="527.085"/><polygon fill="#000000" points="136.6326,517.085,140.6326,527.085,144.6326,517.085,140.6326,521.085" style="stroke:#000000;stroke-width:1;"/><line style="stroke:#000000;stroke-width:1;" x1="525.3288" x2="525.3288" y1="662.9873" y2="686.1357"/><polygon fill="#000000" points="521.3288,676.1357,525.3288,686.1357,529.3288,676.1357,525.3288,680.1357" style="stroke:#000000;stroke-width:1;"/><line style="stroke:#000000;stroke-width:1;" x1="525.3288" x2="525.3288" y1="720.1045" y2="740.1045"/><polygon fill="#000000" points="521.3288,730.1045,525.3288,740.1045,529.3288,730.1045,525.3288,734.1045" style="stroke:#000000;stroke-width:1;"/><line style="stroke:#000000;stroke-width:1;" x1="525.3288" x2="525.3288" y1="774.0732" y2="794.0732"/><polygon fill="#000000" points="521.3288,784.0732,525.3288,794.0732,529.3288,784.0732,525.3288,788.0732" style="stroke:#000000;stroke-width:1;"/><line style="stroke:#000000;stroke-width:1;" x1="525.3288" x2="525.3288" y1="828.042" y2="848.042"/><polygon fill="#000000" points="521.3288,838.042,525.3288,848.042,529.3288,838.042,525.3288,842.042" style="stroke:#000000;stroke-width:1;"/><line style="stroke:#000000;stroke-width:1;" x1="482.9098" x2="472.9098" y1="914.0107" y2="914.0107"/><line style="stroke:#000000;stroke-width:1;" x1="472.9098" x2="472.9098" y1="914.0107" y2="936.0107"/><polygon fill="#000000" points="468.9098,926.0107,472.9098,936.0107,476.9098,926.0107,472.9098,930.0107" style="stroke:#000000;stroke-width:1;"/><line style="stroke:#000000;stroke-width:1;" x1="567.7478" x2="577.7478" y1="914.0107" y2="914.0107"/><line style="stroke:#000000;stroke-width:1;" x1="577.7478" x2="577.7478" y1="914.0107" y2="936.0107"/><polygon fill="#000000" points="573.7478,926.0107,577.7478,936.0107,581.7478,926.0107,577.7478,930.0107" style="stroke:#000000;stroke-width:1;"/><line style="stroke:#000000;stroke-width:1;" x1="472.9098" x2="472.9098" y1="969.9795" y2="987.9795"/><line style="stroke:#000000;stroke-width:1;" x1="472.9098" x2="513.3288" y1="987.9795" y2="987.9795"/><polygon fill="#000000" points="503.3288,983.9795,513.3288,987.9795,503.3288,991.9795,507.3288,987.9795" style="stroke:#000000;stroke-width:1;"/><line style="stroke:#000000;stroke-width:1;" x1="577.7478" x2="577.7478" y1="969.9795" y2="987.9795"/><line style="stroke:#000000;stroke-width:1;" x1="577.7478" x2="537.3288" y1="987.9795" y2="987.9795"/><polygon fill="#000000" points="547.3288,983.9795,537.3288,987.9795,547.3288,991.9795,543.3288,987.9795" style="stroke:#000000;stroke-width:1;"/><line style="stroke:#000000;stroke-width:1;" x1="525.3288" x2="525.3288" y1="882.0107" y2="902.0107"/><polygon fill="#000000" points="521.3288,892.0107,525.3288,902.0107,529.3288,892.0107,525.3288,896.0107" style="stroke:#000000;stroke-width:1;"/><line style="stroke:#000000;stroke-width:1;" x1="1311.4438" x2="1311.4438" y1="1107.917" y2="1127.917"/><polygon fill="#000000" points="1307.4438,1117.917,1311.4438,1127.917,1315.4438,1117.917,1311.4438,1121.917" style="stroke:#000000;stroke-width:1;"/><line style="stroke:#000000;stroke-width:1;" x1="1227.0285" x2="1217.0285" y1="1193.8857" y2="1193.8857"/><line style="stroke:#000000;stroke-width:1;" x1="1217.0285" x2="1217.0285" y1="1193.8857" y2="1215.8857"/><polygon fill="#000000" points="1213.0285,1205.8857,1217.0285,1215.8857,1221.0285,1205.8857,1217.0285,1209.8857" style="stroke:#000000;stroke-width:1;"/><line style="stroke:#000000;stroke-width:1;" x1="1395.8591" x2="1405.8591" y1="1193.8857" y2="1193.8857"/><line style="stroke:#000000;stroke-width:1;" x1="1405.8591" x2="1405.8591" y1="1193.8857" y2="1215.8857"/><polygon fill="#000000" points="1401.8591,1205.8857,1405.8591,1215.8857,1409.8591,1205.8857,1405.8591,1209.8857" style="stroke:#000000;stroke-width:1;"/><line style="stroke:#000000;stroke-width:1;" x1="1217.0285" x2="1217.0285" y1="1249.8545" y2="1267.8545"/><line style="stroke:#000000;stroke-width:1;" x1="1217.0285" x2="1299.4438" y1="1267.8545" y2="1267.8545"/><polygon fill="#000000" points="1289.4438,1263.8545,1299.4438,1267.8545,1289.4438,1271.8545,1293.4438,1267.8545" style="stroke:#000000;stroke-width:1;"/><line style="stroke:#000000;stroke-width:1;" x1="1405.8591" x2="1405.8591" y1="1249.8545" y2="1267.8545"/><line style="stroke:#000000;stroke-width:1;" x1="1405.8591" x2="1323.4438" y1="1267.8545" y2="1267.8545"/><polygon fill="#000000" points="1333.4438,1263.8545,1323.4438,1267.8545,1333.4438,1271.8545,1329.4438,1267.8545" style="stroke:#000000;stroke-width:1;"/><line style="stroke:#000000;stroke-width:1;" x1="1311.4438" x2="1311.4438" y1="1161.8857" y2="1181.8857"/><polygon fill="#000000" points="1307.4438,1171.8857,1311.4438,1181.8857,1315.4438,1171.8857,1311.4438,1175.8857" style="stroke:#000000;stroke-width:1;"/><line style="stroke:#000000;stroke-width:1;" x1="1779.9168" x2="1779.9168" y1="1387.792" y2="1407.792"/><polygon fill="#000000" points="1775.9168,1397.792,1779.9168,1407.792,1783.9168,1397.792,1779.9168,1401.792" style="stroke:#000000;stroke-width:1;"/><line style="stroke:#000000;stroke-width:1;" x1="140.6326" x2="140.6326" y1="575.0225" y2="611.0947"/><line style="stroke:#000000;stroke-width:1;" x1="140.6326" x2="525.3288" y1="611.0947" y2="611.0947"/><line style="stroke:#000000;stroke-width:1;" x1="525.3288" x2="525.3288" y1="611.0947" y2="629.0186"/><polygon fill="#000000" points="521.3288,619.0186,525.3288,629.0186,529.3288,619.0186,525.3288,623.0186" style="stroke:#000000;stroke-width:1;"/><line style="stroke:#000000;stroke-width:1;" x1="525.3288" x2="525.3288" y1="999.9795" y2="1004.9795"/><line style="stroke:#000000;stroke-width:1;" x1="525.3288" x2="873.5901" y1="1004.9795" y2="1004.9795"/><line style="stroke:#000000;stroke-width:1;" x1="873.5901" x2="873.5901" y1="1004.9795" y2="1019.9795"/><polygon fill="#000000" points="869.5901,1009.9795,873.5901,1019.9795,877.5901,1009.9795,873.5901,1013.9795" style="stroke:#000000;stroke-width:1;"/><line style="stroke:#000000;stroke-width:1;" x1="873.5901" x2="873.5901" y1="1053.9482" y2="1058.9482"/><line style="stroke:#000000;stroke-width:1;" x1="873.5901" x2="1311.4438" y1="1058.9482" y2="1058.9482"/><line style="stroke:#000000;stroke-width:1;" x1="1311.4438" x2="1311.4438" y1="1058.9482" y2="1073.9482"/><polygon fill="#000000" points="1307.4438,1063.9482,1311.4438,1073.9482,1315.4438,1063.9482,1311.4438,1067.9482" style="stroke:#000000;stroke-width:1;"/><line style="stroke:#000000;stroke-width:1;" x1="1311.4438" x2="1311.4438" y1="1279.8545" y2="1284.8545"/><line style="stroke:#000000;stroke-width:1;" x1="1311.4438" x2="1532.1144" y1="1284.8545" y2="1284.8545"/><line style="stroke:#000000;stroke-width:1;" x1="1532.1144" x2="1532.1144" y1="1284.8545" y2="1299.8545"/><polygon fill="#000000" points="1528.1144,1289.8545,1532.1144,1299.8545,1536.1144,1289.8545,1532.1144,1293.8545" style="stroke:#000000;stroke-width:1;"/><line style="stroke:#000000;stroke-width:1;" x1="1532.1144" x2="1532.1144" y1="1333.8232" y2="1338.8232"/><line style="stroke:#000000;stroke-width:1;" x1="1532.1144" x2="1779.9168" y1="1338.8232" y2="1338.8232"/><line style="stroke:#000000;stroke-width:1;" x1="1779.9168" x2="1779.9168" y1="1338.8232" y2="1353.8232"/><polygon fill="#000000" points="1775.9168,1343.8232,1779.9168,1353.8232,1783.9168,1343.8232,1779.9168,1347.8232" style="stroke:#000000;stroke-width:1;"/><text fill="#000000" font-family="Verdana" font-size="18" lengthAdjust="spacing" textLength="89.9995" x="172.955" y="76.0625">&#21069;&#19968;&#22825;&#25910;&#30424;</text><text fill="#000000" font-family="Verdana" font-size="18" lengthAdjust="spacing" textLength="89.9995" x="563.0312" y="76.0625">&#31532;&#20108;&#22825;&#30424;&#21069;</text><text fill="#000000" font-family="Verdana" font-size="18" lengthAdjust="spacing" textLength="35.9998" x="947.0903" y="76.0625">&#30424;&#20013;</text><text fill="#000000" font-family="Verdana" font-size="18" lengthAdjust="spacing" textLength="35.9998" x="1268.4437" y="76.0625">&#21320;&#20241;</text><text fill="#000000" font-family="Verdana" font-size="18" lengthAdjust="spacing" textLength="35.9998" x="1553.6145" y="76.0625">&#19979;&#21320;</text><text fill="#000000" font-family="Verdana" font-size="18" lengthAdjust="spacing" textLength="35.9998" x="1760.9169" y="76.0625">&#25910;&#30424;</text><?plantuml-src VPHRRnfN4CVVzrESkggKkB8Bs3GnL8eIrxpqeP-119AiOeE5IQLAVi1sWELEZ6qs1XUmeT3ON19Vk2mEKZzAkkUStIVt8tJE7i0KHn7IiZlpdz7CxyoPR_mltMjkjBxg53t2nYlHi-xqETVGK-UpLozytjSUrx9trUj3tpfMs6z2uNpc5tyJ_Ry_cLQkF7HOLvQ-fFJwN6xVKBMu_DXXDNr1zRFeNFDwN7VIEXoEfUN5hmHCPdSubisc1uBW5_shRlHOsowflJAHC_HSeKe1pI7IJ95iXKIgMYbEBhTeBNRJbzHEbARg99kY4Ucc7n64JHn9g9q0Blz5zgveJjuKDlnEdr-m_Ll8H16tZQFDLfl9D0VF1HC4smMFr-z6Fl75Ix-046vsqI-YpukqviKC3zGQBNozFoEuFIx4j8BDF8-qP1kd3d2voZBp_FijacZO1Pjb7f7S1JbeaVYMgcH8FW3lgj8cnJvu5-QH7axGHfRKZqcYy0FyqPm4Rl0jGkH9W1Gg97kbPo-u0YgsCWJn9ku6Vrhuxf5HjCqwrXOxUB13FXHnVnjtEY3Nsd5QlB2O88hs1aFzZw2Fn72qXakdEFJkfdz80efs-KRjLVy9G9rHK7Fsx1DOfYfQymW27yoZsLaj_1v2wLw1I6aY9q6hDKfOsfsT5I0P3bR02FJfuHjmuK6M78HLvMgAxMGWZWTn-XIg0FlVRSH1qkWL2MnzZwKoRWmT-acI9AlSmItag0IfSMAVT8BmX7wdIRAHuD8H6hNROZKQaPpQK62S40wUa_EQselffUxGRbJApccx2uC7hT-Ulh19pyxKNforcvDXy3QDCOiX_aLB3QrHXgeUmdpDBTdCrhj3HY8Pt0-WNvzkY2xHwK6SFYV7Ph2th-_KSFiZoKSccKrCu6SvZMW-fX_kuN8UnalFAgGOrezbDYrO2kcx1NxiJ4ZoMQsf00cQ3l7kjL9jwAF1AZqAJ34byMruZXH6GsC57sHIFm6xNH34v-WUbCbdZ-m4SUZoqNq4kye3Thbv7zgnyGl4yU1o65ZR1VVgXXlTm-a_3GMaWt1-hUsiJV4vuvoJrKxTm9iwHjmB_Iqni6OBNE8fiZRG980AnDtqu-EA-Upo5S9MHK9I-s-Dh8aFY7znAcmtM8pTO1dj1iwlK86ijuoaDBieHgyJ1A95uxBtrFuXrB47rC_msvesaDafdfLWFTm10vprTsaWoeFvD4CFsk1QFvMD0lxF2Nmaar2lyxUGr4uCUXX1eagLAlKnAlF2SDLzZHKa6MrD6yxzWQNMpEJ6dFaSsiMVtjDaqmvRrRl-7m00?></g></svg>